HIERARCHY
ROOT Hips
{
  OFFSET 46.4589 95.5252 4.19283
  CHANNELS 6 Xposition Yposition Zposition Zrotation Xrotation Yrotation
  JOINT spine
  {
    OFFSET 0 7.96568 0.458067
    CHANNELS 3 Zrotation Xrotation Yrotation
    JOINT spine1
    {
      OFFSET 0 10.2431 0
      CHANNELS 3 Zrotation Xrotation Yrotation
      JOINT spine2
      {
        OFFSET 0 9.81475 0
        CHANNELS 3 Zrotation Xrotation Yrotation
        JOINT Neck
        {
          OFFSET 0 25.1986 1.20138
          CHANNELS 3 Zrotation Xrotation Yrotation
          JOINT Head
          {
            OFFSET 0 7.61315 0
            CHANNELS 3 Zrotation Xrotation Yrotation
            End Site
            {
              OFFSET 0 18.4281 -6.07733
            }
          }
        }
        JOINT RightShoulder
        {
          OFFSET -4.1327 10.5992 -0.575451
          CHANNELS 3 Zrotation Xrotation Yrotation
          JOINT RightArm
          {
            OFFSET 0 13.9018 0
            CHANNELS 3 Zrotation Xrotation Yrotation
            JOINT RightArmRoll
            {
              OFFSET 0 7.01788 0
              CHANNELS 3 Zrotation Xrotation Yrotation
              JOINT RightForeArm
              {
                OFFSET 0 20.4406 0
                CHANNELS 3 Zrotation Xrotation Yrotation
                JOINT RightForeArmRoll
                {
                  OFFSET 0 7.87515 0
                  CHANNELS 3 Zrotation Xrotation Yrotation
                  JOINT RightHand
                  {
                    OFFSET 0 15.8037 0
                    CHANNELS 3 Zrotation Xrotation Yrotation
                    End Site
                    {
                      OFFSET 0 0 0
                    }
                  }
                }
              }
            }
          }
        }
        JOINT LeftShoulder
        {
          OFFSET 4.1327 10.5992 -0.575451
          CHANNELS 3 Zrotation Xrotation Yrotation
          JOINT LeftArm
          {
            OFFSET 0 13.9018 0
            CHANNELS 3 Zrotation Xrotation Yrotation
            JOINT LeftArmRoll
            {
              OFFSET 0 7.01788 0
              CHANNELS 3 Zrotation Xrotation Yrotation
              JOINT LeftForeArm
              {
                OFFSET 0 20.4406 0
                CHANNELS 3 Zrotation Xrotation Yrotation
                JOINT LeftForeArmRoll
                {
                  OFFSET 0 7.87515 0
                  CHANNELS 3 Zrotation Xrotation Yrotation
                  JOINT LeftHand
                  {
                    OFFSET 0 15.8037 0
                    CHANNELS 3 Zrotation Xrotation Yrotation
                    End Site
                    {
                      OFFSET 0 0 0
                    }
                  }
                }
              }
            }
          }
        }
      }
    }
  }
  JOINT RightUpLeg
  {
    OFFSET -7.06048 -1.2947 -1.08609
    CHANNELS 3 Zrotation Xrotation Yrotation
    JOINT RightUpLegRoll
    {
      OFFSET 0 18.5308 0
      CHANNELS 3 Zrotation Xrotation Yrotation
      JOINT RightLeg
      {
        OFFSET 0 -22.9476 0
        CHANNELS 3 Zrotation Xrotation Yrotation
        JOINT RightLegRoll
        {
          OFFSET 0 23.0226 0
          CHANNELS 3 Zrotation Xrotation Yrotation
          JOINT RightFoot
          {
            OFFSET 0 19.1625 0
            CHANNELS 3 Zrotation Xrotation Yrotation
            JOINT RightToeBase
            {
              OFFSET 0 16.0188 0
              CHANNELS 3 Zrotation Xrotation Yrotation
              End Site
              {
                OFFSET 0.00678979 7.75782 -0.894206
              }
            }
          }
        }
      }
    }
  }
  JOINT LeftUpLeg
  {
    OFFSET 7.06048 -1.2947 -1.08609
    CHANNELS 3 Zrotation Xrotation Yrotation
    JOINT LeftUpLegRoll
    {
      OFFSET 0 18.5309 0
      CHANNELS 3 Zrotation Xrotation Yrotation
      JOINT LeftLeg
      {
        OFFSET 0 22.9475 0
        CHANNELS 3 Zrotation Xrotation Yrotation
        JOINT LeftLegRoll
        {
          OFFSET 0 23.2355 0
          CHANNELS 3 Zrotation Xrotation Yrotation
          JOINT LeftFoot
          {
            OFFSET 0 18.9496 0
            CHANNELS 3 Zrotation Xrotation Yrotation
            JOINT LeftToeBase
            {
              OFFSET 0 16.0188 0
              CHANNELS 3 Zrotation Xrotation Yrotation
              End Site
              {
                OFFSET -0.0304289 7.75782 -0.894206
              }
            }
          }
        }
      }
    }
  }
}
MOTION
Frames: 8
Frame Time: 0.00208333
48.8524 87.0334 30.6018 0.196766 8.18083 6.6845 -0.485292 -0.85691 -0.214185 -0.972125 2.29034 -0.372633 -0.968631 3.93527 -0.356607 8.04964 -9.29173 -2.20204 -5.57081 -5.49342 -2.49581 58.5617 -11.1485 -6.9442 108.471 14.9405 8.03368 -4.28569e-006 -3.66567e-008 1.56627e-006 11.6925 21.0895 -2.84442 -3.60896e-006 2.55821e-006 -3.00446 8.02993 -4.95141 0.697637 -56.6397 -2.51627 1.35137 -108.427 19.562 -3.8487 3.94992e-006 -2.13711e-006 1.49383e-006 -10.9458 27.9176 2.88491 -5.8692e-006 4.24387e-007 3.00084 -8.0299 -4.95141 -0.69765 161.717 28.1361 11.0247 -180 7.01588e-015 179.119 176.887 51.1212 -179.123 -3.87685e-006 -2.58462e-006 2.55935 -105.12 83.791 109.325 8.16215 25.6904 -2.91076 -170.496 34.4995 -4.75644 4.54188e-006 -4.6773e-006 -1.21635 0.180118 -55.2761 0.693538 -2.5591e-006 -2.09022e-006 -2.70284 72.0245 83.4163 -74.8178 -8.17345 27.1756 1.01187 
48.8618 87.31 30.7173 0.163515 8.05184 6.65221 -0.479208 -0.884648 -0.210167 -0.960001 2.23483 -0.365495 -0.956566 3.87976 -0.349663 8.06274 -8.92966 -2.17457 -5.53708 -5.56742 -2.43451 58.4328 -11.0931 -6.91142 108.511 14.5691 8.20201 -4.28569e-006 -3.66567e-008 1.56627e-006 11.6872 21.1106 -2.84458 -3.60896e-006 2.55821e-006 -3.00446 8.02993 -4.95141 0.697637 -56.6817 -2.53775 1.3705 -108.136 19.3361 -3.75151 3.94992e-006 -2.13711e-006 1.49383e-006 -11.2873 27.8152 2.98861 -5.8692e-006 4.24387e-007 3.00084 -8.0299 -4.95141 -0.69765 162.05 27.595 10.6957 -180 7.01583e-015 179.091 176.884 50.2261 -179.119 -3.87685e-006 -2.58464e-006 2.56369 -99.8048 83.8461 103.6 8.16512 25.758 -2.82561 -170.475 33.9555 -4.70846 4.54188e-006 -4.6773e-006 -1.21362 0.104326 -54.4571 0.665374 -2.5591e-006 -2.09022e-006 -2.61501 66.1833 83.1227 -68.8625 -8.17044 27.2802 0.87431 
48.8088 87.7134 30.8943 0.123162 7.92225 6.62041 -0.471865 -0.912758 -0.205384 -0.945364 2.17858 -0.356959 -0.942001 3.82351 -0.341364 8.0949 -8.54853 -2.15359 -5.52458 -5.64292 -2.3794 58.3284 -11.0417 -6.8809 108.521 14.1971 8.37263 -4.28569e-006 -3.66567e-008 1.56627e-006 11.6893 21.1347 -2.84682 -3.60896e-006 2.55821e-006 -3.00446 8.02993 -4.95141 0.697637 -56.7083 -2.54524 1.37867 -107.867 19.0981 -3.67244 3.94992e-006 -2.13711e-006 1.49383e-006 -11.6054 27.7007 3.08011 -5.8692e-006 4.24387e-007 3.00084 -8.0299 -4.95141 -0.69765 162.377 27.042 10.377 -180 7.01577e-015 179.064 176.879 49.2988 -179.127 -3.87685e-006 -2.58467e-006 2.54926 -93.7325 83.8594 97.1605 8.16815 25.8331 -2.73085 -170.456 33.3951 -4.65331 4.54188e-006 -4.6773e-006 -1.21131 0.042475 -53.6019 0.645585 -2.5591e-006 -2.09023e-006 -2.52584 60.8181 82.7611 -63.3843 -8.1678 27.3593 0.769686 
48.8215 88.0387 31.0472 0.0747412 7.7923 6.58943 -0.463123 -0.941256 -0.199825 -0.927934 2.12154 -0.347014 -0.924658 3.76648 -0.331701 8.14912 -8.14778 -2.14026 -5.5364 -5.71943 -2.3318 58.252 -10.9952 -6.85302 108.499 13.8259 8.54486 -4.28569e-006 -3.66567e-008 1.56627e-006 11.7 21.1623 -2.85152 -3.60896e-006 2.55821e-006 -3.00446 8.02993 -4.95141 0.697637 -56.7151 -2.53757 1.37459 -107.626 18.8474 -3.61285 3.94992e-006 -2.13711e-006 1.49383e-006 -11.896 27.5733 3.15762 -5.8692e-006 4.24387e-007 3.00084 -8.0299 -4.95141 -0.69765 162.698 26.4775 10.0703 -180 7.01573e-015 179.041 176.871 48.3394 -179.148 -3.87685e-006 -2.58471e-006 2.51349 -86.9287 83.809 90.0395 8.17115 25.9164 -2.62576 -170.438 32.8182 -4.59104 4.54188e-006 -4.6773e-006 -1.20947 -0.00440875 -52.71 0.634491 -2.5591e-006 -2.09025e-006 -2.43562 55.9734 82.3417 -58.4281 -8.16599 27.4089 0.703371 
48.769 88.5305 31.1064 0.019136 7.66102 6.55816 -0.453157 -0.970492 -0.192805 -0.908054 2.06302 -0.334283 -0.904896 3.70796 -0.319291 8.2301 -7.72317 -2.13153 -5.57697 -5.79957 -2.28849 58.1998 -10.9535 -6.82782 108.449 13.4483 8.72038 -4.28569e-006 -3.66567e-008 1.56627e-006 11.7205 21.2012 -2.86006 -3.60896e-006 2.55821e-006 -3.00446 8.02993 -4.95141 0.697637 -56.7088 -2.51094 1.35668 -107.405 18.5811 -3.57248 3.94992e-006 -2.13711e-006 1.49383e-006 -12.1665 27.4256 3.22235 -5.8692e-006 4.24387e-007 3.00084 -8.0299 -4.95141 -0.69765 163.014 25.8956 9.77302 -180 7.01568e-015 179.019 176.86 47.3281 -179.185 -3.87685e-006 -2.58477e-006 2.45314 -79.1452 83.6573 81.9766 8.17435 26.0184 -2.49677 -170.423 32.2147 -4.51816 4.54188e-006 -4.6773e-006 -1.20842 -0.0367101 -51.7601 0.634022 -2.5591e-006 -2.09027e-006 -2.34012 51.4045 81.845 -53.7429 -8.16517 27.431 0.672798 
48.7744 88.8517 31.2865 -0.041896 7.52735 6.52541 -0.442252 -1.0007 -0.183836 -0.886282 2.00254 -0.317772 -0.883287 3.64749 -0.303131 8.33793 -7.27229 -2.12386 -5.64598 -5.88582 -2.24561 58.1652 -10.9161 -6.80483 108.378 13.0576 8.90128 -4.28569e-006 -3.66567e-008 1.56627e-006 11.7501 21.2561 -2.87304 -3.60896e-006 2.55821e-006 -3.00446 8.02993 -4.95141 0.697637 -56.699 -2.46399 1.3253 -107.191 18.2975 -3.54944 3.94992e-006 -2.13711e-006 1.49383e-006 -12.4273 27.253 3.27725 -5.8692e-006 4.24387e-007 3.00084 -8.0299 -4.95141 -0.69765 163.326 25.2915 9.48084 -180 7.01564e-015 178.998 176.845 46.2498 -179.237 -3.87685e-006 -2.58483e-006 2.36883 -70.5432 83.3457 73.1152 8.17762 26.1464 -2.33467 -170.413 31.5771 -4.43246 4.54188e-006 -4.6773e-006 -1.20834 -0.0569176 -50.7372 0.644444 -2.5591e-006 -2.09029e-006 -2.23594 47.0001 81.2456 -49.2122 -8.1652 27.4316 0.67 
48.6539 89.382 31.3577 -0.10801 7.39151 6.49137 -0.430437 -1.03174 -0.173203 -0.862671 1.9404 -0.29804 -0.859875 3.58535 -0.283778 8.46868 -6.79723 -2.11763 -5.73943 -5.97747 -2.20347 58.1473 -10.8823 -6.78376 108.287 12.6557 9.08741 -4.28569e-006 -3.66567e-008 1.56627e-006 11.7876 21.3234 -2.88965 -3.60896e-006 2.55821e-006 -3.00446 8.02993 -4.95141 0.697637 -56.686 -2.39908 1.28203 -106.984 17.9983 -3.54272 3.94992e-006 -2.13711e-006 1.49383e-006 -12.6783 27.0592 3.32319 -5.8692e-006 4.24387e-007 3.00085 -8.0299 -4.95141 -0.69765 163.635 24.6673 9.19344 -180 7.01559e-015 178.978 176.826 45.1123 -179.302 -3.87685e-006 -2.5849e-006 2.26375 -61.9006 82.8359 64.2328 8.18041 26.2955 -2.14519 -170.406 30.9097 -4.33591 4.54188e-006 -4.6773e-006 -1.20908 -0.0671318 -49.6504 0.663618 -2.5591e-006 -2.09032e-006 -2.12456 42.916 80.5498 -44.9938 -8.16598 27.4129 0.692209 
48.6689 89.7241 31.5224 -0.178858 7.25371 6.45626 -0.41774 -1.06345 -0.161188 -0.837271 1.87691 -0.275646 -0.834706 3.52187 -0.261792 8.61844 -6.30013 -2.11321 -5.85331 -6.07383 -2.1624 58.1451 -10.8517 -6.76429 108.179 12.2445 9.27864 -4.28569e-006 -3.66567e-008 1.56627e-006 11.8319 21.3996 -2.90909 -3.60896e-006 2.55821e-006 -3.00446 8.02993 -4.95141 0.697637 -56.6704 -2.3186 1.22848 -106.782 17.6853 -3.55127 3.94992e-006 -2.13711e-006 1.49383e-006 -12.9196 26.8475 3.36105 -5.8692e-006 4.24387e-007 3.00085 -8.0299 -4.95141 -0.69765 163.941 24.0251 8.91046 -180 7.01555e-015 178.958 176.801 43.9234 -179.376 -3.87686e-006 -2.58497e-006 2.14107 -53.8924 82.1192 56.0035 8.18221 26.4609 -1.93409 -170.401 30.2165 -4.23039 4.54188e-006 -4.6773e-006 -1.21049 -0.0692892 -48.5085 0.689551 -2.5591e-006 -2.09034e-006 -2.00746 39.2376 79.7692 -41.1752 -8.16739 27.377 0.736631 
